<?xml version="1.0" encoding="UTF-8"?>
<svg id="Calque_1" data-name="Calque 1" xmlns="http://www.w3.org/2000/svg" viewBox="0 0 102.21 103.34">
  <g>
    <path d="M45.78,23l5.85,28.07-17.46-22.75c3.31-2.56,7.24-4.41,11.61-5.32Z" style="fill: #25f4f4;"/>
    <path d="M58.53,23.24l-6.9,27.83-5.85-28.07c4.37-.91,8.71-.78,12.75.24Z" style="fill: #34bde8;"/>
    <path d="M69.92,28.99l-18.29,22.08,6.9-27.83c4.2,1.03,8.09,3.01,11.39,5.75Z" style="fill: #4b7cf7;"/>
    <path d="M77.7,39.11l-26.06,11.95,18.29-22.08c3.28,2.7,5.96,6.13,7.78,10.13Z" style="fill: #7027e2;"/>
    <path d="M79.7,45.21c.45,2.14.64,4.28.6,6.39l-28.67-.54,26.06-11.95c.88,1.91,1.56,3.95,2.01,6.1Z" style="fill: #a71ddb;"/>
    <path d="M80.3,51.6c-.06,4.38-1.15,8.61-3.08,12.39l-25.59-12.93,28.67.54Z" style="fill: #bf00c9;"/>
    <path d="M77.22,63.99c-1.93,3.83-4.7,7.19-8.14,9.82l-17.45-22.75,25.59,12.93Z" style="fill: #f95ff5;"/>
    <path d="M69.08,73.81c-3.3,2.55-7.23,4.41-11.59,5.32l-5.85-28.07,17.45,22.75Z" style="fill: #ffa4fd;"/>
    <path d="M51.63,51.06l5.85,28.07c-4.37.91-8.71.78-12.77-.24l6.91-27.83Z" style="fill: #f78d94;"/>
    <path d="M51.63,51.06l-6.91,27.83c-4.2-1.03-8.09-3.01-11.39-5.75l18.3-22.08Z" style="fill: #ed7f74;"/>
    <path d="M51.63,51.06l-18.3,22.08c-3.27-2.7-5.95-6.14-7.77-10.13l26.06-11.95Z" style="fill: #f7a57c;"/>
    <path d="M51.63,51.06l-26.06,11.95c-.88-1.91-1.56-3.95-2.01-6.1s-.64-4.28-.6-6.39l28.67.54Z" style="fill: #eaf76d;"/>
    <path d="M51.63,51.06l-28.67-.54c.06-4.38,1.15-8.61,3.07-12.39l25.6,12.92Z" style="fill: #9aed64;"/>
    <path d="M51.63,51.06l-25.6-12.92c1.93-3.83,4.7-7.19,8.14-9.82l17.46,22.75Z" style="fill: #49c98f;"/>
  </g>
  <g>
    <path d="M48.65,36.75l2.99,14.32,8.01-12.23c-3.13-2.06-7.04-2.91-11-2.08Z" style="fill: #6dd0f7;"/>
    <path d="M65.95,48.08l-14.32,2.99,8.01-12.23c3.13,2.04,5.48,5.29,6.3,9.25Z" style="fill: #5f9cff;"/>
    <path d="M65.95,48.08c.83,3.96-.03,7.87-2.08,11l-12.23-8.01,14.32-2.99Z" style="fill: #aa83ff;"/>
    <path d="M63.87,59.08c-2.04,3.13-5.29,5.48-9.25,6.3l-2.99-14.32,12.23,8.01Z" style="fill: #c4b4f9;"/>
    <path d="M51.63,51.06l2.99,14.32c-3.96.83-7.87-.03-11-2.08l8.01-12.23Z" style="fill: #fccfc8;"/>
    <path d="M51.63,51.06l-8.01,12.23c-3.13-2.04-5.48-5.29-6.3-9.25l14.32-2.99Z" style="fill: #ffc697;"/>
    <path d="M51.63,51.06l-14.32,2.99c-.83-3.96.03-7.87,2.08-11l12.23,8.01Z" style="fill: #f4ffb6;"/>
    <path d="M48.65,36.75l2.99,14.32-12.23-8.01c2.04-3.13,5.29-5.48,9.25-6.3Z" style="fill: #b6f1ff;"/>
  </g>
  <polygon points="55.88 53.06 67.44 51.45 55.88 49.83 59.6 42.96 53.41 47.09 51.76 31.86 50.08 47.23 42.91 43.07 47.43 49.83 34.76 51.45 47.55 53.08 43.92 59.29 50.11 55.66 51.76 69.38 53.39 55.78 59.6 59.93 55.88 53.06"/>
  <g>
    <g>
      <path d="M15.13,55.73l.02.12c.01.09-.01.15-.11.19l-1.2.47.24,1.46,1.29.06c.1,0,.15.05.17.15v.09c.03.11-.02.16-.14.17l-5.26-.31c-.1,0-.15-.05-.17-.15l-.03-.19c-.01-.09.01-.16.11-.19l4.88-1.99c.11-.04.18,0,.2.11ZM13.47,56.66l-2.87,1.13,3.08.16-.21-1.29Z" style="fill: #fff;"/>
      <path d="M13.8,51.57c.09.03.13.08.13.16,0,.08-.04.14-.13.17l-3.32,1.3,4.24-.08c.1,0,.16.05.16.15v.08c0,.1-.05.16-.15.17l-5.15.1c-.1,0-.16-.06-.16-.16v-.12c0-.08.04-.16.13-.18l3.63-1.4-3.68-1.27c-.09-.03-.13-.1-.14-.18v-.13c0-.1.05-.16.15-.17l5.15-.1c.1,0,.16.06.16.16v.09c0,.1-.05.17-.15.17l-4.24.08,3.37,1.16Z" style="fill: #fff;"/>
      <path d="M15.25,45.5l-.23,1.83c-.01.1-.07.16-.17.14l-5.11-.63c-.1-.01-.15-.08-.13-.18l.22-1.8c.01-.1.07-.16.18-.14h.07c.1.02.16.09.14.19l-.19,1.55,2.09.26.16-1.31c.01-.1.08-.16.18-.14h.06c.1.02.16.09.14.19l-.16,1.31,2.17.27.2-1.57c.01-.1.08-.15.18-.14h.07c.1.02.15.09.13.19Z" style="fill: #fff;"/>
      <path d="M16.29,40.79l-.03.12c-.02.08-.08.13-.17.14l-2.37.28-.02.08-.21.84,2.14.54c.1.03.14.09.11.19l-.03.1c-.03.1-.09.15-.19.12l-5-1.27c-.1-.02-.14-.1-.11-.2l.28-1.09c.21-.8.69-1.12,1.43-.93l.77.2c.57.15.87.48.88,1l2.38-.29c.12-.01.18.05.15.17ZM12.65,40.29l-.51-.13c-.63-.16-.94.01-1.09.61l-.21.81,2.26.58.21-.81c.15-.6-.04-.9-.67-1.06Z" style="fill: #fff;"/>
      <path d="M17.17,38.22l-.04.09c-.04.1-.11.14-.2.1l-4.83-1.8c-.09-.04-.12-.11-.09-.21l.04-.09c.03-.09.1-.13.2-.09l4.83,1.8c.1.04.13.11.09.2Z" style="fill: #fff;"/>
      <path d="M17.48,32.66l.81.4c.7.35.85.89.48,1.63h0c-.37.75-.89.97-1.59.62l-2.94-1.46c-.67-.33-.85-.89-.48-1.63h0c.37-.75.92-.95,1.59-.62l.69.35c.09.04.12.13.07.22l-.04.09c-.05.09-.12.11-.22.07l-.57-.28c-.57-.29-.91-.2-1.18.34-.27.54-.14.87.44,1.15l2.68,1.34c.57.29.91.2,1.18-.34s.14-.87-.44-1.15l-.68-.34c-.09-.05-.12-.12-.08-.21l.04-.09c.04-.09.13-.12.22-.07Z" style="fill: #fff;"/>
      <path d="M21.8,29.52l-.07.1c-.05.08-.12.1-.21.06l-1.2-.48-.82,1.23.9.93c.08.07.07.14.02.22l-.05.08c-.06.09-.14.1-.23.02l-3.63-3.83c-.08-.07-.07-.14-.02-.22l.1-.16c.05-.08.12-.11.21-.06l4.93,1.89c.11.05.13.13.07.22ZM19.95,29.07l-2.87-1.14,2.14,2.23.73-1.08Z" style="fill: #fff;"/>
      <path d="M39.93,16.18l-1.73.63c-.1.04-.17,0-.21-.09l-1.77-4.84c-.03-.09,0-.17.1-.2l1.71-.62c.09-.03.17,0,.21.09l.02.07c.04.09,0,.17-.1.21l-1.46.54.72,1.98,1.24-.45c.09-.03.17,0,.21.1l.02.06c.03.1,0,.18-.1.21l-1.24.45.75,2.05,1.49-.54c.09-.03.17,0,.21.1l.02.07c.04.1,0,.17-.1.2Z" style="fill: #fff;"/>
      <path d="M42.54,9.96l1.03,4.09c.19.76-.11,1.22-.92,1.42h-.03c-.8.21-1.29-.05-1.48-.81l-1.03-4.09c-.03-.1.02-.17.12-.19l.1-.02c.1-.02.16.01.19.11l1,3.95c.16.63.42.83,1.02.68.6-.15.74-.45.58-1.08l-.99-3.95c-.03-.1.01-.16.11-.19l.1-.02c.1-.02.17.01.2.11Z" style="fill: #fff;"/>
      <path d="M47.95,14.45l-.12.02c-.09.01-.15-.02-.2-.11l-1.14-2.09h-.08s-.86.13-.86.13l.3,2.18c.01.1-.03.16-.13.18h-.1c-.1.03-.17-.02-.18-.12l-.69-5.1c-.01-.1.04-.16.14-.18l1.11-.15c.82-.11,1.29.22,1.39.98l.11.79c.08.59-.12.98-.59,1.18l1.16,2.09c.05.1.02.19-.1.2ZM47.05,10.89l-.07-.52c-.09-.64-.36-.86-.97-.78l-.83.11.31,2.31.83-.11c.61-.08.81-.38.73-1.01Z" style="fill: #fff;"/>
      <path d="M50.59,8.77h.06c.83-.02,1.26.36,1.28,1.12l.08,3.28c.02.76-.39,1.17-1.22,1.19h-.06c-.83.02-1.26-.36-1.28-1.12l-.08-3.28c-.02-.77.39-1.17,1.22-1.19ZM50.75,13.96c.62-.01.85-.28.83-.93l-.07-3c-.02-.65-.26-.9-.88-.88-.62.02-.85.28-.83.93l.07,3c.02.65.27.9.88.88Z" style="fill: #fff;"/>
      <path d="M56.56,10.24l-.07.85c-.07.76-.52,1.12-1.34,1.04l-.86-.07-.18,2.13c0,.1-.07.15-.17.14h-.1c-.1-.02-.16-.08-.15-.18l.44-5.13c0-.1.07-.15.18-.14l1.12.1c.83.07,1.21.5,1.15,1.26ZM56.13,10.34c.05-.65-.16-.92-.78-.98l-.83-.07-.2,2.38.83.07c.61.05.88-.18.93-.83l.05-.58Z" style="fill: #fff;"/>
      <path d="M59.6,15.13l-1.81-.35c-.1-.02-.15-.08-.13-.18l.97-5.06c.02-.1.09-.14.19-.12l1.79.34c.1.02.15.08.13.18v.07c-.03.1-.11.15-.21.13l-1.53-.29-.4,2.07,1.29.25c.1.02.15.09.13.19v.06c-.03.1-.1.15-.2.13l-1.29-.25-.41,2.15,1.56.3c.1.02.15.09.13.19v.07c-.03.1-.1.14-.2.12Z" style="fill: #fff;"/>
      <path d="M79.55,27.08l-.08-.09c-.06-.07-.07-.14-.01-.22l.74-1.06-1-1.08-1.12.66c-.08.06-.16.04-.22-.03l-.06-.07c-.07-.08-.06-.16.04-.22l4.56-2.64c.09-.06.16-.04.22.03l.13.14c.06.07.08.14.01.22l-2.99,4.35c-.07.1-.15.1-.23.02ZM80.43,25.39l1.78-2.52-2.66,1.56.88.96Z" style="fill: #fff;"/>
      <path d="M85.1,28.48l-.06-.08c-.05-.08-.04-.16.04-.22l.44-.31c.49-.35.58-.68.24-1.16-.34-.48-.68-.5-1.17-.15l-.31.22c-.33.24-.34.41-.27.88l.11.95c.06.43-.03.83-.37,1.07l-.57.41c-.64.45-1.16.34-1.64-.33h0c-.48-.69-.43-1.21.21-1.67l.59-.42c.08-.06.17-.04.23.04l.06.08c.05.08.04.16-.04.22l-.49.35c-.48.35-.59.69-.24,1.17.34.48.71.49,1.19.15l.35-.25c.33-.24.35-.45.3-.92l-.12-.93c-.05-.52,0-.8.36-1.05l.52-.37c.61-.44,1.19-.27,1.62.34h0c.44.62.4,1.22-.21,1.66l-.54.39c-.08.06-.17.04-.23-.04Z" style="fill: #fff;"/>
      <path d="M83.64,32.93l-.05-.09c-.05-.09-.03-.17.05-.22l4.48-2.55c.09-.05.17-.02.22.06l.05.09c.05.09.03.16-.06.21l-4.48,2.55c-.09.05-.16.03-.21-.06Z" style="fill: #fff;"/>
      <path d="M85.85,37.5l-.05-.11c-.04-.09-.02-.15.06-.21l1.05-.76-.59-1.35-1.27.26c-.1.03-.16-.02-.2-.1l-.04-.09c-.04-.1,0-.17.11-.2l5.18-1c.1-.03.16.01.2.1l.08.17c.04.09.03.16-.06.21l-4.25,3.14c-.1.07-.18.04-.22-.06ZM87.23,36.19l2.5-1.8-3.02.61.52,1.2Z" style="fill: #fff;"/>
    </g>
    <g>
      <path d="M22.91,81.6l-.08-.08c-.07-.07-.08-.13-.02-.22l.7-1.09-1.05-1.04-1.09.7c-.08.06-.15.04-.22-.02l-.07-.07c-.08-.08-.07-.16.03-.23l4.46-2.83c.08-.06.15-.04.22.02l.13.13c.07.07.08.14.02.22l-2.81,4.47c-.07.1-.15.1-.23.03ZM23.72,79.88l1.67-2.59-2.59,1.67.92.92Z" style="fill: #fff;"/>
      <path d="M25.16,83.35l3.18-4.06c.06-.08.14-.08.23-.02l1.41,1.1c.08.06.1.14.03.22l-.04.05c-.06.08-.15.09-.23.03l-1.21-.94-1.32,1.69,1.01.79c.08.06.09.15.03.23l-.04.05c-.06.08-.15.09-.23.03l-1.01-.79-1.47,1.88c-.06.08-.14.09-.22.03l-.08-.06c-.08-.06-.1-.15-.03-.22Z" style="fill: #fff;"/>
      <path d="M31.08,87.6l-.11-.06c-.07-.04-.11-.11-.08-.21l.42-2.34-.07-.04-.74-.45-1.14,1.88c-.05.09-.13.11-.21.05l-.09-.05c-.09-.05-.11-.13-.06-.22l2.66-4.41c.05-.09.13-.1.22-.05l.96.58c.71.43.87.98.47,1.64l-.41.68c-.31.51-.71.69-1.21.55l-.41,2.36c-.02.11-.1.16-.2.1ZM32.61,84.26l.27-.45c.33-.56.26-.9-.27-1.22l-.71-.43-1.2,2,.71.43c.53.32.87.22,1.2-.33Z" style="fill: #fff;"/>
      <path d="M33.97,89.06l-.09-.04c-.09-.04-.13-.12-.08-.21l2.18-4.67c.04-.09.12-.12.21-.07l.09.04c.09.04.12.12.08.21l-2.18,4.67c-.04.09-.12.12-.21.08Z" style="fill: #fff;"/>
      <path d="M39.87,89.22l-.29.86c-.25.74-.77.96-1.56.69h-.01c-.78-.27-1.06-.76-.81-1.5l1.07-3.1c.24-.71.78-.96,1.56-.69h.01c.78.27,1.05.8.81,1.51l-.25.73c-.03.1-.11.13-.21.1l-.1-.03c-.1-.03-.13-.11-.09-.21l.21-.6c.21-.61.08-.93-.5-1.13-.58-.2-.88-.02-1.09.58l-.98,2.84c-.21.61-.08.93.5,1.13.58.2.88.02,1.09-.59l.25-.72c.03-.09.11-.14.2-.1l.1.03c.1.03.13.11.1.21Z" style="fill: #fff;"/>
      <path d="M44.44,92.38l-.11-.02c-.09-.02-.14-.07-.14-.17v-1.29s-1.45-.3-1.45-.3l-.52,1.18c-.04.1-.11.12-.2.1l-.09-.02c-.11-.02-.14-.09-.1-.21l2.18-4.8c.04-.1.11-.12.2-.1l.18.04c.09.02.15.07.14.17l.1,5.27c0,.12-.07.17-.17.15ZM44.17,90.5l-.02-3.08-1.25,2.82,1.28.26Z" style="fill: #fff;"/>
      <path d="M71.88,81.3l.05-.03c.69-.46,1.25-.37,1.68.26l1.82,2.72c.43.63.29,1.19-.39,1.65l-.05.03c-.69.46-1.25.37-1.68-.26l-1.82-2.72c-.43-.64-.29-1.2.39-1.66ZM74.8,85.6c.51-.34.57-.69.21-1.23l-1.67-2.49c-.36-.54-.71-.62-1.22-.28-.51.34-.57.69-.21,1.23l1.67,2.49c.36.54.71.62,1.22.27Z" style="fill: #fff;"/>
      <path d="M78.99,80.15l.6.68c.52.59.45,1.15-.17,1.69h-.01c-.62.56-1.18.56-1.7-.03l-2.17-2.46c-.5-.56-.45-1.15.17-1.69h.01c.62-.56,1.21-.53,1.7.03l.51.58c.07.08.06.16-.01.23l-.08.07c-.08.07-.16.06-.23-.02l-.42-.47c-.42-.48-.77-.53-1.23-.13-.46.4-.45.75-.03,1.23l1.98,2.25c.42.48.77.53,1.23.13.46-.4.45-.75.03-1.23l-.51-.58c-.07-.08-.07-.16,0-.23l.08-.07c.08-.07.16-.06.23.01Z" style="fill: #fff;"/>
      <path d="M83.71,78.05l-1.22,1.38c-.07.08-.15.09-.23.02l-3.86-3.41c-.08-.07-.08-.15,0-.23l1.21-1.36c.07-.08.15-.09.22-.02l.05.05c.08.07.08.16.01.23l-1.03,1.17,1.58,1.4.87-.99c.07-.07.15-.08.23-.01l.05.04c.08.07.08.16.01.23l-.87.99,1.64,1.45,1.05-1.19c.07-.08.16-.08.23-.01l.05.05c.08.07.08.15,0,.23Z" style="fill: #fff;"/>
      <path d="M86.89,73.74l-.07.1c-.05.08-.12.1-.21.06l-1.2-.49-.84,1.22.89.94c.07.07.07.14.02.22l-.05.08c-.06.09-.14.09-.23.02l-3.59-3.87c-.07-.07-.07-.14-.02-.22l.11-.15c.05-.08.12-.11.21-.06l4.91,1.95c.11.05.13.13.07.22ZM85.05,73.26l-2.85-1.17,2.12,2.25.74-1.08Z" style="fill: #fff;"/>
      <path d="M88.5,71l-.04.08c-.05.09-.12.12-.21.07l-4.59-2.33c-.09-.05-.11-.13-.06-.22l.06-.13c.04-.08.1-.11.19-.1l4.66.42-3.84-1.95c-.09-.05-.11-.12-.07-.21l.04-.08c.05-.09.12-.12.21-.07l4.59,2.33c.09.05.11.13.07.22l-.05.1c-.04.08-.11.12-.19.1l-4.7-.41,3.87,1.97c.09.05.12.12.07.21Z" style="fill: #fff;"/>
      <path d="M90.84,65.86l-.04.09c-.04.09-.11.13-.2.1l-4.82-1.83c-.09-.04-.12-.11-.09-.21l.04-.09c.04-.1.11-.13.2-.09l4.82,1.84c.1.04.13.11.09.2Z" style="fill: #fff;"/>
      <path d="M92.48,60.54l-.03.11c-.02.09-.08.13-.18.13l-1.29-.06-.38,1.42,1.15.59c.09.04.12.11.09.2l-.03.09c-.03.11-.1.14-.21.09l-4.67-2.43c-.09-.04-.12-.11-.09-.2l.05-.18c.02-.09.08-.14.18-.13l5.27.19c.12,0,.17.08.14.18ZM90.59,60.71l-3.08-.14,2.74,1.4.33-1.26Z" style="fill: #fff;"/>
    </g>
  </g>
  <path d="M51.53,99.06c-9.23,0-18.28-2.68-26.18-7.86-10.72-7.02-18.07-17.8-20.68-30.34C-.73,34.96,15.94,9.5,41.84,4.1c25.91-5.4,51.36,11.27,56.76,37.17,5.4,25.9-11.27,51.36-37.17,56.76-3.29.69-6.61,1.03-9.9,1.03ZM51.65,3.31c-3.22,0-6.49.33-9.76,1.01C16.11,9.7-.49,35.04,4.89,60.81c2.6,12.49,9.92,23.21,20.58,30.2,10.67,6.99,23.42,9.4,35.91,6.8,12.49-2.6,23.21-9.91,30.2-20.58s9.4-23.42,6.8-35.91C93.69,18.81,73.77,3.31,51.65,3.31Z" style="fill: #fff;"/>
  <path d="M51.57,82.04c-5.96,0-11.8-1.73-16.9-5.07-6.92-4.53-11.66-11.49-13.35-19.58-3.49-16.72,7.28-33.15,23.99-36.64,8.09-1.69,16.37-.12,23.29,4.41,6.92,4.53,11.66,11.49,13.35,19.58,1.69,8.1.12,16.37-4.41,23.29s-11.49,11.66-19.58,13.35c-2.12.44-4.26.66-6.39.66ZM51.7,20.3c-2.11,0-4.23.22-6.34.66-8.04,1.68-14.95,6.38-19.45,13.26-4.5,6.87-6.06,15.09-4.38,23.13,1.68,8.04,6.39,14.95,13.26,19.45,6.87,4.5,15.08,6.05,23.13,4.38,8.04-1.68,14.95-6.38,19.45-13.26,4.5-6.87,6.05-15.09,4.38-23.13-1.68-8.04-6.39-14.95-13.26-19.45-5.07-3.32-10.87-5.04-16.78-5.04Z" style="fill: #fff;"/>
</svg>