<?xml version="1.0" encoding="UTF-8"?>
<svg id="Calque_1" xmlns="http://www.w3.org/2000/svg" version="1.1" viewBox="0 0 800 800">
  <!-- Generator: Adobe Illustrator 29.8.0, SVG Export Plug-In . SVG Version: 2.1.1 Build 160)  -->
  <defs>
    <style>
      .st0 {
        fill: #fff;
        fill-rule: evenodd;
      }
    </style>
  </defs>
  <path class="st0" d="M327.9,614.9c5.7,10.8,11.5,20.4,17,29-58.3-13.1-108.9-46.6-144-92.6,23.1-13,52.7-26.5,88.3-36.4,10.1,39.7,24.4,73.2,38.7,100ZM372.1,591.4c-12.4-23.3-24.9-52.4-33.8-86.8,19.3-2.9,39.9-4.5,61.8-4.5s42.5,1.7,61.8,4.5c-9,34.5-21.4,63.6-33.8,86.8-10,18.7-19.9,33.6-27.9,44.5-8.1-10.9-18-25.8-27.9-44.5ZM325,400c0,19.5,1.3,38,3.6,55.4,22.3-3.4,46.1-5.4,71.4-5.4s49.1,2,71.4,5.4c2.3-17.4,3.6-35.9,3.6-55.4s-1.3-37.9-3.6-55.4c-22.3,3.4-46.1,5.4-71.4,5.4s-49.1-2-71.4-5.4c-2.3,17.4-3.6,35.9-3.6,55.4ZM279.6,334.3c-2.9,20.6-4.6,42.6-4.6,65.7s1.7,45.1,4.6,65.7c-42.4,11.4-77.6,27.5-104.8,42.9-15.9-32.9-24.8-69.7-24.8-108.6s8.9-75.8,24.8-108.6c27.2,15.5,62.3,31.5,104.8,42.9ZM338.2,295.5c19.3,2.9,39.9,4.5,61.8,4.5s42.5-1.7,61.8-4.5c-9-34.5-21.4-63.6-33.8-86.8-10-18.7-19.9-33.6-27.9-44.5-8.1,10.9-18,25.8-27.9,44.5-12.4,23.3-24.9,52.4-33.8,86.8ZM520.4,334.3c2.9,20.6,4.6,42.6,4.6,65.7s-1.7,45.1-4.6,65.7c42.5,11.4,77.6,27.5,104.8,42.9,15.9-32.9,24.8-69.7,24.8-108.6s-8.9-75.8-24.8-108.6c-27.2,15.5-62.3,31.5-104.8,42.9ZM599.1,248.7c-23.1,13-52.7,26.5-88.3,36.4-10.1-39.7-24.4-73.2-38.7-100-5.7-10.8-11.5-20.4-17-29,58.3,13.1,108.9,46.6,144,92.6ZM289.3,285.1c-35.6-9.9-65.2-23.4-88.3-36.4,35-46,85.6-79.5,144-92.6-5.5,8.6-11.2,18.3-17,29-14.3,26.8-28.6,60.3-38.7,100ZM510.7,514.9c-10.1,39.7-24.4,73.2-38.7,100-5.7,10.8-11.5,20.4-17,29,58.3-13.1,108.9-46.6,144-92.6-23.1-13-52.7-26.5-88.3-36.4ZM400,700c165.7,0,300-134.3,300-300S565.7,100,400,100,100,234.3,100,400s134.3,300,300,300Z"/>
</svg>