<svg  viewBox="0 0 2 2">
    <path d="M.34,1.78s-.06-.01-.08-.03-.03-.05-.03-.08.01-.06.03-.08c.33-.33.33-.84,0-1.16-.02-.02-.03-.05-.03-.08s.01-.06.03-.08c.04-.04.12-.04.16,0,.31.31.85.31,1.16,0,.04-.04.12-.05.16,0,.02.02.03.05.03.08,0,.03-.01.06-.03.08-.32.32-.32.84,0,1.16.02.02.03.05.03.08,0,.03-.01.06-.03.08-.04.04-.12.04-.16,0-.16-.16-.36-.24-.58-.24h0c-.22,0-.42.09-.58.24-.02.02-.05.03-.08.03ZM1,1.27h0c.11,0,.22.02.32.05-.07-.21-.07-.44,0-.65-.21.07-.44.07-.65,0,.03.1.05.21.05.32,0,.11-.02.22-.05.32.1-.03.21-.05.32-.05Z" style="fill: #fff;"/>
</svg>
